<svg width="30" height="30" viewBox="0 0 30 30" fill="none" xmlns="http://www.w3.org/2000/svg">
<g clip-path="url(#clip0_37_35)">
<path d="M21.5625 8.4375H4.6875C3.65197 8.4375 2.8125 9.27697 2.8125 10.3125V23.4375C2.8125 24.473 3.65197 25.3125 4.6875 25.3125H21.5625C22.598 25.3125 23.4375 24.473 23.4375 23.4375V10.3125C23.4375 9.27697 22.598 8.4375 21.5625 8.4375Z" fill="white"/>
<path d="M25.3125 4.6875H7.5C7.25136 4.6875 7.0129 4.78627 6.83709 4.96209C6.66127 5.1379 6.5625 5.37636 6.5625 5.625C6.5625 5.87364 6.66127 6.1121 6.83709 6.28791C7.0129 6.46373 7.25136 6.5625 7.5 6.5625H25.3125V20.625C25.3125 20.8736 25.4113 21.1121 25.5871 21.2879C25.7629 21.4637 26.0014 21.5625 26.25 21.5625C26.4986 21.5625 26.7371 21.4637 26.9129 21.2879C27.0887 21.1121 27.1875 20.8736 27.1875 20.625V6.5625C27.1875 6.06522 26.99 5.58831 26.6383 5.23667C26.2867 4.88504 25.8098 4.6875 25.3125 4.6875Z" fill="white"/>
</g>
<defs>
<clipPath id="clip0_37_35">
<rect width="30" height="30" fill="white"/>
</clipPath>
</defs>
</svg>
