<svg width="26" height="26" viewBox="0 0 26 26" fill="none" xmlns="http://www.w3.org/2000/svg">
<g clip-path="url(#clip0_84_629)">
<path d="M14.2188 13C14.2188 13.241 14.1473 13.4767 14.0134 13.6771C13.8794 13.8775 13.6891 14.0337 13.4664 14.126C13.2437 14.2182 12.9986 14.2424 12.7622 14.1953C12.5258 14.1483 12.3087 14.0322 12.1382 13.8618C11.9678 13.6913 11.8517 13.4742 11.8047 13.2378C11.7576 13.0014 11.7818 12.7563 11.874 12.5336C11.9663 12.3109 12.1225 12.1206 12.3229 11.9866C12.5233 11.8527 12.759 11.7813 13 11.7813C13.3232 11.7813 13.6332 11.9097 13.8618 12.1382C14.0903 12.3668 14.2188 12.6768 14.2188 13ZM13 7.71875C13.241 7.71875 13.4767 7.64727 13.6771 7.51335C13.8775 7.37944 14.0337 7.18909 14.126 6.9664C14.2182 6.7437 14.2424 6.49865 14.1953 6.26223C14.1483 6.02582 14.0322 5.80866 13.8618 5.63821C13.6913 5.46777 13.4742 5.35169 13.2378 5.30467C13.0014 5.25764 12.7563 5.28178 12.5336 5.37402C12.3109 5.46627 12.1206 5.62248 11.9866 5.8229C11.8527 6.02332 11.7813 6.25895 11.7813 6.5C11.7813 6.82323 11.9097 7.13323 12.1382 7.36179C12.3668 7.59035 12.6768 7.71875 13 7.71875ZM13 18.2812C12.759 18.2812 12.5233 18.3527 12.3229 18.4866C12.1225 18.6206 11.9663 18.8109 11.874 19.0336C11.7818 19.2563 11.7576 19.5014 11.8047 19.7378C11.8517 19.9742 11.9678 20.1913 12.1382 20.3618C12.3087 20.5322 12.5258 20.6483 12.7622 20.6953C12.9986 20.7424 13.2437 20.7182 13.4664 20.626C13.6891 20.5337 13.8794 20.3775 14.0134 20.1771C14.1473 19.9767 14.2188 19.741 14.2188 19.5C14.2188 19.1768 14.0903 18.8668 13.8618 18.6382C13.6332 18.4097 13.3232 18.2812 13 18.2812Z" fill="white"/>
</g>
<defs>
<clipPath id="clip0_84_629">
<rect width="26" height="26" fill="white"/>
</clipPath>
</defs>
</svg>
