<svg width="30" height="30" viewBox="0 0 30 30" fill="none" xmlns="http://www.w3.org/2000/svg">
<g clip-path="url(#clip0_41_83)">
<path d="M15.9375 9.37497V14.4609L20.3438 17.0039C20.5209 17.1078 20.6589 17.267 20.7368 17.457C20.8147 17.6469 20.828 17.8572 20.7748 18.0556C20.7216 18.2539 20.6047 18.4292 20.4421 18.5547C20.2796 18.6801 20.0803 18.7487 19.875 18.75C19.7094 18.7546 19.5462 18.7097 19.4062 18.6211L14.5312 15.8086H14.5078L14.4609 15.7851L14.4258 15.75L14.3906 15.7265L14.3555 15.6914L14.332 15.6679C14.3086 15.6562 14.2969 15.6328 14.2852 15.6211L14.2617 15.5976L14.2383 15.5508L14.2148 15.5156L14.1914 15.4804C14.1841 15.475 14.1782 15.4679 14.1742 15.4598C14.1701 15.4516 14.168 15.4427 14.168 15.4336L14.1445 15.3984C14.1445 15.3867 14.1328 15.375 14.1328 15.3515C14.1286 15.3468 14.1253 15.3412 14.1233 15.3352C14.1213 15.3291 14.1206 15.3227 14.1211 15.3164L14.0977 15.2695C14.0982 15.2632 14.0974 15.2568 14.0954 15.2507C14.0934 15.2447 14.0902 15.2391 14.0859 15.2343C14.0859 15.2109 14.0859 15.1992 14.0742 15.1875V15.1406C14.0742 15.1172 14.0625 15.1054 14.0625 15.0937V9.37497C14.0625 9.12633 14.1613 8.88787 14.3371 8.71206C14.5129 8.53624 14.7514 8.43747 15 8.43747C15.2486 8.43747 15.4871 8.53624 15.6629 8.71206C15.8387 8.88787 15.9375 9.12633 15.9375 9.37497ZM22.957 7.04294C20.844 4.93761 17.9828 3.75549 15 3.75549C12.0172 3.75549 9.15596 4.93761 7.04297 7.04294L6.07031 8.0156L4.39453 6.33981C4.26446 6.20783 4.0982 6.11736 3.91674 6.07981C3.73528 6.04227 3.54676 6.05934 3.375 6.12888C3.20397 6.20133 3.05761 6.3218 2.95362 6.4757C2.84963 6.62961 2.79247 6.81035 2.78906 6.99607V11.6836C2.78906 11.9322 2.88783 12.1707 3.06365 12.3465C3.23947 12.5223 3.47792 12.6211 3.72656 12.6211H8.41406C8.59855 12.6208 8.77885 12.566 8.93238 12.4637C9.08591 12.3614 9.20584 12.2161 9.27715 12.0459C9.34847 11.8758 9.36799 11.6884 9.33328 11.5072C9.29857 11.326 9.21117 11.1591 9.08203 11.0273L7.39453 9.33981L8.36719 8.36716C9.67872 7.05709 11.3492 6.16524 13.1675 5.80435C14.9858 5.44346 16.8702 5.62972 18.5827 6.3396C20.2951 7.04948 21.7587 8.2511 22.7884 9.79258C23.8181 11.3341 24.3676 13.1462 24.3676 15C24.3676 16.8537 23.8181 18.6659 22.7884 20.2074C21.7587 21.7488 20.2951 22.9505 18.5827 23.6603C16.8702 24.3702 14.9858 24.5565 13.1675 24.1956C11.3492 23.8347 9.67872 22.9429 8.36719 21.6328C8.28096 21.5446 8.17797 21.4744 8.06427 21.4266C7.95057 21.3787 7.82844 21.3541 7.70508 21.3541C7.58171 21.3541 7.45959 21.3787 7.34589 21.4266C7.23218 21.4744 7.12919 21.5446 7.04297 21.6328C6.86764 21.8085 6.76918 22.0466 6.76918 22.2949C6.76918 22.5431 6.86764 22.7813 7.04297 22.957C9.1533 25.0673 12.0155 26.2529 15 26.2529C17.9845 26.2529 20.8467 25.0673 22.957 22.957C25.0674 20.8467 26.2529 17.9844 26.2529 15C26.2529 12.0155 25.0674 9.15328 22.957 7.04294Z" fill="white"/>
</g>
<defs>
<clipPath id="clip0_41_83">
<rect width="30" height="30" fill="white"/>
</clipPath>
</defs>
</svg>
