<svg width="30" height="30" viewBox="0 0 30 30" fill="none" xmlns="http://www.w3.org/2000/svg">
<g clip-path="url(#clip0_30_352)">
<path d="M25.6406 12.1524L16.2656 3.63283C15.92 3.31661 15.4685 3.14124 15 3.14124C14.5315 3.14124 14.08 3.31661 13.7344 3.63283L4.35938 12.1524C4.16743 12.328 4.01413 12.5416 3.90922 12.7797C3.80431 13.0177 3.75009 13.275 3.75001 13.5352V24.3281C3.74238 24.8009 3.90927 25.2598 4.21876 25.6172C4.39441 25.8169 4.61078 25.9768 4.85334 26.0859C5.0959 26.1951 5.35902 26.251 5.62501 26.25H11.25C11.4986 26.25 11.7371 26.1512 11.9129 25.9754C12.0887 25.7996 12.1875 25.5612 12.1875 25.3125V19.6875C12.1875 19.4389 12.2863 19.2004 12.4621 19.0246C12.6379 18.8488 12.8764 18.75 13.125 18.75H16.875C17.1237 18.75 17.3621 18.8488 17.5379 19.0246C17.7137 19.2004 17.8125 19.4389 17.8125 19.6875V25.3125C17.8125 25.5612 17.9113 25.7996 18.0871 25.9754C18.2629 26.1512 18.5014 26.25 18.75 26.25H24.375C24.686 26.2528 24.9925 26.1761 25.2656 26.0274C25.5628 25.8655 25.811 25.6267 25.9842 25.336C26.1574 25.0453 26.2492 24.7134 26.25 24.375V13.5352C26.2499 13.275 26.1957 13.0177 26.0908 12.7797C25.9859 12.5416 25.8326 12.328 25.6406 12.1524Z" fill="white"/>
</g>
<defs>
<clipPath id="clip0_30_352">
<rect width="30" height="30" fill="white"/>
</clipPath>
</defs>
</svg>
