<svg width="30" height="30" viewBox="0 0 30 30" fill="none" xmlns="http://www.w3.org/2000/svg">
<g clip-path="url(#clip0_60_55)">
<path d="M20.625 3.75C19.5334 3.75 18.4569 4.00415 17.4805 4.49231C16.5042 4.98047 15.6549 5.68925 15 6.5625C14.1146 5.38191 12.8801 4.50984 11.4715 4.06983C10.0629 3.62981 8.55153 3.64415 7.15152 4.11082C5.75152 4.57749 4.53383 5.47283 3.67095 6.67001C2.80808 7.86718 2.34375 9.30551 2.34375 10.7812C2.34375 19.207 14.0508 25.8516 14.543 26.1328C14.6824 26.2112 14.84 26.2516 15 26.25C15.1601 26.2527 15.318 26.2122 15.457 26.1328C17.6129 24.8725 19.635 23.3961 21.4922 21.7266C25.582 18.0469 27.6562 14.3672 27.6562 10.7812C27.6562 8.91645 26.9155 7.12802 25.5968 5.80941C24.2782 4.49079 22.4898 3.75 20.625 3.75Z" fill="white"/>
</g>
<defs>
<clipPath id="clip0_60_55">
<rect width="30" height="30" fill="white"/>
</clipPath>
</defs>
</svg>
