<svg width="26" height="26" viewBox="0 0 26 26" fill="none" xmlns="http://www.w3.org/2000/svg">
<g clip-path="url(#clip0_50_94)">
<path d="M15.793 2.5187C15.6564 2.45282 15.5041 2.42646 15.3534 2.44261C15.2026 2.45877 15.0594 2.51679 14.9398 2.61011L7.84062 8.12495H3.25C2.81902 8.12495 2.4057 8.29616 2.10095 8.60091C1.7962 8.90565 1.625 9.31898 1.625 9.74995V16.25C1.625 16.6809 1.7962 17.0943 2.10095 17.399C2.4057 17.7038 2.81902 17.875 3.25 17.875H7.84062L14.9398 23.3898C15.0816 23.5017 15.2569 23.5625 15.4375 23.5625C15.5604 23.561 15.6816 23.5333 15.793 23.4812C15.9301 23.4145 16.0457 23.3105 16.1265 23.1812C16.2073 23.0519 16.2501 22.9025 16.25 22.75V3.24995C16.2501 3.09746 16.2073 2.94801 16.1265 2.81869C16.0457 2.68938 15.9301 2.58542 15.793 2.5187Z" fill="white"/>
<path d="M23.0851 13L24.9538 11.1414C25.0834 10.9836 25.1496 10.7832 25.1396 10.5792C25.1296 10.3752 25.044 10.1822 24.8996 10.0378C24.7552 9.89342 24.5623 9.80788 24.3583 9.79787C24.1543 9.78785 23.9539 9.85406 23.796 9.98362L21.9374 11.8524L20.0788 9.98362C19.921 9.85406 19.7206 9.78785 19.5166 9.79787C19.3126 9.80788 19.1196 9.89342 18.9752 10.0378C18.8308 10.1822 18.7453 10.3752 18.7353 10.5792C18.7252 10.7832 18.7915 10.9836 18.921 11.1414L20.7898 13L18.921 14.8586C18.7685 15.0127 18.6829 15.2207 18.6829 15.4375C18.6829 15.6543 18.7685 15.8624 18.921 16.0164C19.077 16.1655 19.2842 16.2491 19.4999 16.25C19.7153 16.2471 19.9218 16.1638 20.0788 16.0164L21.9374 14.1477L23.796 16.0164C23.952 16.1655 24.1592 16.2491 24.3749 16.25C24.5903 16.2471 24.7968 16.1638 24.9538 16.0164C25.1064 15.8624 25.192 15.6543 25.192 15.4375C25.192 15.2207 25.1064 15.0127 24.9538 14.8586L23.0851 13Z" fill="white"/>
</g>
<defs>
<clipPath id="clip0_50_94">
<rect width="26" height="26" fill="white"/>
</clipPath>
</defs>
</svg>
