<svg width="30" height="30" viewBox="0 0 30 30" fill="none" xmlns="http://www.w3.org/2000/svg">
<g clip-path="url(#clip0_41_43)">
<path d="M24.9492 3.0117C24.8382 2.92424 24.7089 2.863 24.5709 2.83256C24.4329 2.80212 24.2898 2.80327 24.1523 2.83592L9.15235 6.58592C8.94788 6.63591 8.76618 6.75325 8.63651 6.91906C8.50684 7.08487 8.43674 7.28949 8.4375 7.49998V20.4023C7.65535 19.8797 6.72097 19.6335 5.78285 19.7028C4.84473 19.7722 3.95669 20.153 3.25985 20.7849C2.56301 21.4168 2.09735 22.2635 1.93686 23.1904C1.77637 24.1173 1.93026 25.0712 2.37409 25.9006C2.81791 26.73 3.5262 27.3872 4.3864 27.7679C5.2466 28.1486 6.20936 28.2309 7.12168 28.0017C8.03401 27.7725 8.84356 27.245 9.4217 26.5029C9.99983 25.7609 10.3134 24.8469 10.3125 23.9062V12.914L23.4375 9.63279V16.6523C22.6553 16.1297 21.721 15.8835 20.7829 15.9528C19.8447 16.0222 18.9567 16.403 18.2599 17.0349C17.563 17.6668 17.0973 18.5135 16.9369 19.4404C16.7764 20.3673 16.9303 21.3212 17.3741 22.1506C17.8179 22.98 18.5262 23.6372 19.3864 24.0179C20.2466 24.3986 21.2094 24.4809 22.1217 24.2517C23.034 24.0225 23.8436 23.495 24.4217 22.7529C24.9998 22.0109 25.3134 21.0969 25.3125 20.1562V3.74998C25.3139 3.60709 25.2817 3.46587 25.2186 3.33765C25.1555 3.20943 25.0633 3.0978 24.9492 3.0117Z" fill="white"/>
</g>
<defs>
<clipPath id="clip0_41_43">
<rect width="30" height="30" fill="white"/>
</clipPath>
</defs>
</svg>
