<svg width="40" height="40" viewBox="0 0 40 40" fill="none" xmlns="http://www.w3.org/2000/svg">
<g clip-path="url(#clip0_154_36)">
<mask id="mask0_154_36" style="mask-type:luminance" maskUnits="userSpaceOnUse" x="0" y="0" width="40" height="40">
<path d="M40 0H0V40H40V0Z" fill="white"/>
</mask>
<g mask="url(#mask0_154_36)">
<path fill-rule="evenodd" clip-rule="evenodd" d="M20 40C31.0457 40 40 31.0457 40 20C40 8.95433 31.0457 0 20 0C8.95433 0 0 8.95433 0 20C0 31.0457 8.95433 40 20 40Z" fill="#333333"/>
<path fill-rule="evenodd" clip-rule="evenodd" d="M25.7842 27.6917C25.6397 27.6875 25.4956 27.6446 25.3649 27.5621C25.3635 27.5621 25.1962 27.4542 24.8529 27.2672C24.509 27.0796 24.0026 26.8214 23.3715 26.5504C22.1106 26.0047 20.3457 25.4006 18.3731 25.1688C17.7675 25.098 17.1846 25.0547 16.6272 25.0363C14.1203 24.9524 12.1501 25.3318 11.3471 25.5194C11.0783 25.582 10.9542 25.6202 10.9542 25.6202C10.507 25.7536 10.039 25.492 9.90735 25.0378C9.77715 24.5825 10.033 24.1056 10.4796 23.9728C10.5366 23.9562 13.0782 23.2028 16.6804 23.321C17.281 23.3418 17.9126 23.3875 18.565 23.4643C22.9415 23.985 26.199 26.0749 26.2592 26.1065C26.6549 26.3586 26.7745 26.8882 26.527 27.2893C26.363 27.5588 26.0752 27.7016 25.7842 27.6917ZM28.8527 22.6312C28.646 22.9662 28.2874 23.1462 27.9236 23.1335C27.7429 23.1274 27.5626 23.0736 27.3996 22.97C27.3986 22.9714 27.3616 22.9454 27.262 22.8866C27.1614 22.8272 27.0103 22.74 26.8138 22.633C26.4182 22.4172 25.838 22.1203 25.111 21.807C23.6606 21.1798 21.6306 20.487 19.3629 20.2212C18.6688 20.1392 17.9974 20.0907 17.3556 20.0695C14.4711 19.9724 12.2038 20.4084 11.2822 20.6242C10.9745 20.6968 10.835 20.7382 10.8341 20.7396C10.2758 20.9046 9.68915 20.5784 9.52602 20.0097C9.36195 19.4404 9.68215 18.8443 10.242 18.6803C10.3128 18.6582 13.2543 17.7869 17.4237 17.9254C18.1188 17.9485 18.8481 18.0004 19.6038 18.0899C24.675 18.694 28.4449 21.11 28.52 21.1529C29.0126 21.4686 29.1627 22.1298 28.8527 22.6312ZM31.3456 17.9089C31.0968 18.3114 30.6649 18.5262 30.2298 18.5116C30.0144 18.5046 29.797 18.441 29.602 18.3156C29.602 18.3156 29.5566 18.2864 29.4388 18.2162C29.3221 18.1474 29.1446 18.0442 28.911 17.9169C28.4458 17.6648 27.7614 17.3156 26.9052 16.9452C25.1953 16.2068 22.8038 15.3892 20.1335 15.0759C19.3142 14.9798 18.5224 14.9232 17.767 14.8987C13.802 14.7639 10.8272 15.4844 10.203 15.6526C10.114 15.6762 10.0826 15.6856 10.0826 15.6856C9.41202 15.885 8.70955 15.4929 8.51309 14.8115C8.31662 14.1292 8.70029 13.4134 9.37215 13.214C9.45742 13.1904 12.929 12.1613 17.8495 12.3253C18.6702 12.3522 19.5302 12.4124 20.4222 12.518C26.4098 13.2319 30.8549 16.0824 30.9452 16.1338C31.537 16.5108 31.7163 17.3067 31.3456 17.9089Z" fill="#555555"/>
</g>
</g>
<defs>
<clipPath id="clip0_154_36">
<rect width="40" height="40" fill="white"/>
</clipPath>
</defs>
</svg>
