<svg width="60" height="60" viewBox="0 0 60 60" fill="none" xmlns="http://www.w3.org/2000/svg">
<g clip-path="url(#clip0_152_14)">
<path fill-rule="evenodd" clip-rule="evenodd" d="M30 60C46.5685 60 60 46.5685 60 30C60 13.4315 46.5685 0 30 0C13.4315 0 0 13.4315 0 30C0 46.5685 13.4315 60 30 60Z" fill="#222222"/>
<path fill-rule="evenodd" clip-rule="evenodd" d="M38.6762 41.5376C38.4594 41.5313 38.2432 41.4669 38.0472 41.3432C38.0451 41.3432 37.7942 41.1814 37.2792 40.9008C36.7634 40.6194 36.0037 40.2321 35.0571 39.8256C33.1658 39.0071 30.5184 38.1009 27.5595 37.7532C26.6511 37.6471 25.7767 37.5821 24.9406 37.5545C21.1803 37.4287 18.225 37.9977 17.0205 38.2791C16.6173 38.3731 16.4311 38.4303 16.4311 38.4303C15.7603 38.6304 15.0583 38.2381 14.8609 37.5567C14.6656 36.8738 15.0493 36.1585 15.7193 35.9592C15.8048 35.9344 19.6172 34.8042 25.0205 34.9816C25.9213 35.0127 26.8687 35.0813 27.8473 35.1965C34.4121 35.9775 39.2983 39.1124 39.3887 39.1598C39.9822 39.5379 40.1616 40.3324 39.7904 40.934C39.5443 41.3383 39.1127 41.5525 38.6762 41.5376ZM43.2789 33.9468C42.9689 34.4493 42.4309 34.7194 41.8853 34.7003C41.6142 34.6911 41.3438 34.6105 41.0992 34.455C41.0978 34.4571 41.0422 34.4182 40.8928 34.3299C40.7419 34.2408 40.5153 34.1101 40.2206 33.9496C39.6271 33.6259 38.7569 33.1805 37.6663 32.7105C35.4908 31.7697 32.4458 30.7306 29.0442 30.3319C28.003 30.2089 26.9959 30.1361 26.0332 30.1043C21.7065 29.9587 18.3056 30.6126 16.9231 30.9363C16.4616 31.0452 16.2524 31.1074 16.251 31.1095C15.4135 31.3569 14.5336 30.8677 14.2889 30.0146C14.0428 29.1607 14.5231 28.2665 15.3628 28.0205C15.4691 27.9873 19.8813 26.6804 26.1354 26.8882C27.178 26.9228 28.272 27.0006 29.4056 27.1349C37.0123 28.041 42.6672 31.6651 42.7798 31.7294C43.5187 32.203 43.7439 33.1947 43.2789 33.9468ZM47.0183 26.8634C46.645 27.4671 45.9972 27.7894 45.3446 27.7675C45.0214 27.7569 44.6954 27.6615 44.4028 27.4734C44.4028 27.4734 44.3347 27.4296 44.1581 27.3243C43.983 27.2211 43.7168 27.0663 43.3664 26.8754C42.6686 26.4973 41.642 25.9735 40.3576 25.4179C37.7928 24.3103 34.2056 23.0839 30.2001 22.6139C28.9712 22.4697 27.7834 22.3848 26.6504 22.3481C20.7028 22.1459 16.2406 23.2267 15.3044 23.479C15.1709 23.5144 15.1237 23.5285 15.1237 23.5285C14.1179 23.8275 13.0642 23.2394 12.7695 22.2173C12.4748 21.1938 13.0503 20.1201 14.0581 19.8211C14.186 19.7857 19.3934 18.242 26.7741 18.488C28.0051 18.5283 29.2951 18.6187 30.6331 18.7771C39.6145 19.8479 46.2822 24.1237 46.4177 24.2007C47.3053 24.7662 47.5743 25.9601 47.0183 26.8634Z" fill="#444444"/>
</g>
<defs>
<clipPath id="clip0_152_14">
<rect width="60" height="60" fill="white"/>
</clipPath>
</defs>
</svg>
