<svg width="30" height="30" viewBox="0 0 30 30" fill="none" xmlns="http://www.w3.org/2000/svg">
<g clip-path="url(#clip0_44_110)">
<path d="M25.3125 5.625V24.375C25.3125 24.8723 25.115 25.3492 24.7633 25.7008C24.4117 26.0525 23.9348 26.25 23.4375 26.25H19.2188C18.7215 26.25 18.2446 26.0525 17.8929 25.7008C17.5413 25.3492 17.3438 24.8723 17.3438 24.375V5.625C17.3438 5.12772 17.5413 4.65081 17.8929 4.29917C18.2446 3.94754 18.7215 3.75 19.2188 3.75H23.4375C23.9348 3.75 24.4117 3.94754 24.7633 4.29917C25.115 4.65081 25.3125 5.12772 25.3125 5.625ZM10.7812 3.75H6.5625C6.06522 3.75 5.58831 3.94754 5.23667 4.29917C4.88504 4.65081 4.6875 5.12772 4.6875 5.625V24.375C4.6875 24.8723 4.88504 25.3492 5.23667 25.7008C5.58831 26.0525 6.06522 26.25 6.5625 26.25H10.7812C11.2785 26.25 11.7554 26.0525 12.1071 25.7008C12.4587 25.3492 12.6562 24.8723 12.6562 24.375V5.625C12.6562 5.12772 12.4587 4.65081 12.1071 4.29917C11.7554 3.94754 11.2785 3.75 10.7812 3.75Z" fill="white"/>
</g>
<defs>
<clipPath id="clip0_44_110">
<rect width="30" height="30" fill="white"/>
</clipPath>
</defs>
</svg>
