<svg width="30" height="30" viewBox="0 0 30 30" fill="none" xmlns="http://www.w3.org/2000/svg">
<g clip-path="url(#clip0_252_33)">
<path d="M27.2227 13.3944L10.3477 3.09365C10.0666 2.91552 9.74195 2.81804 9.40923 2.81184C9.07651 2.80564 8.74848 2.89096 8.46095 3.05849C8.16916 3.21858 7.92592 3.45435 7.75682 3.74101C7.58771 4.02766 7.499 4.35459 7.50001 4.6874V25.3124C7.499 25.6452 7.58771 25.9721 7.75682 26.2588C7.92592 26.5454 8.16916 26.7812 8.46095 26.9413C8.74848 27.1088 9.07651 27.1942 9.40923 27.188C9.74195 27.1818 10.0666 27.0843 10.3477 26.9062L27.2227 16.6054C27.4993 16.4385 27.728 16.203 27.8869 15.9217C28.0457 15.6405 28.1291 15.3229 28.1291 14.9999C28.1291 14.6769 28.0457 14.3593 27.8869 14.0781C27.728 13.7968 27.4993 13.5613 27.2227 13.3944Z" fill="white"/>
</g>
<defs>
<clipPath id="clip0_252_33">
<rect width="30" height="30" fill="white"/>
</clipPath>
</defs>
</svg>
