<svg width="50" height="50" viewBox="0 0 50 50" fill="none" xmlns="http://www.w3.org/2000/svg">
<path d="M38.3334 11.6666H11.6667V38.3333H38.3334V11.6666Z" fill="black"/>
<path d="M25 4.6875C20.9826 4.6875 17.0554 5.87881 13.715 8.11077C10.3746 10.3427 7.77111 13.5151 6.23371 17.2267C4.6963 20.9384 4.29405 25.0225 5.07781 28.9628C5.86157 32.903 7.79615 36.5224 10.6369 39.3631C13.4777 42.2039 17.097 44.1384 21.0372 44.9222C24.9775 45.706 29.0616 45.3037 32.7733 43.7663C36.4849 42.2289 39.6573 39.6254 41.8892 36.285C44.1212 32.9446 45.3125 29.0174 45.3125 25C45.3022 19.616 43.1588 14.4554 39.3517 10.6483C35.5446 6.8412 30.384 4.69782 25 4.6875ZM32.1094 26.3086L22.7344 32.5586C22.4758 32.7186 22.179 32.8063 21.875 32.8125C21.6173 32.8123 21.3632 32.7521 21.1328 32.6367C20.883 32.5019 20.6747 32.3016 20.5301 32.0572C20.3856 31.8129 20.3104 31.5339 20.3125 31.25V18.75C20.3104 18.4661 20.3856 18.1871 20.5301 17.9428C20.6747 17.6984 20.883 17.4981 21.1328 17.3633C21.3836 17.2363 21.6632 17.1768 21.9439 17.1905C22.2247 17.2042 22.4971 17.2906 22.7344 17.4414L32.1094 23.6914C32.327 23.8334 32.5058 24.0274 32.6295 24.2559C32.7533 24.4844 32.8181 24.7402 32.8181 25C32.8181 25.2598 32.7533 25.5156 32.6295 25.7441C32.5058 25.9726 32.327 26.1666 32.1094 26.3086Z" fill="#1ED760"/>
</svg>
