<svg width="42" height="42" viewBox="0 0 42 42" fill="none" xmlns="http://www.w3.org/2000/svg">
<path d="M21 0.6875C16.9826 0.6875 13.0554 1.87881 9.71499 4.11077C6.37462 6.34274 3.77111 9.51512 2.23371 13.2267C0.696301 16.9384 0.294046 21.0225 1.07781 24.9628C1.86157 28.903 3.79615 32.5224 6.6369 35.3631C9.47766 38.2039 13.097 40.1384 17.0372 40.9222C20.9775 41.706 25.0616 41.3037 28.7733 39.7663C32.4849 38.2289 35.6573 35.6254 37.8892 32.285C40.1212 28.9446 41.3125 25.0174 41.3125 21C41.3022 15.616 39.1588 10.4554 35.3517 6.6483C31.5446 2.8412 26.384 0.697824 21 0.6875ZM28.1094 22.3086L18.7344 28.5586C18.4758 28.7186 18.179 28.8063 17.875 28.8125C17.6173 28.8123 17.3632 28.7521 17.1328 28.6367C16.883 28.5019 16.6747 28.3016 16.5301 28.0572C16.3856 27.8129 16.3104 27.5339 16.3125 27.25V14.75C16.3104 14.4661 16.3856 14.1871 16.5301 13.9428C16.6747 13.6984 16.883 13.4981 17.1328 13.3633C17.3836 13.2363 17.6632 13.1768 17.9439 13.1905C18.2247 13.2042 18.4971 13.2906 18.7344 13.4414L28.1094 19.6914C28.327 19.8334 28.5058 20.0274 28.6295 20.2559C28.7533 20.4844 28.8181 20.7402 28.8181 21C28.8181 21.2598 28.7533 21.5156 28.6295 21.7441C28.5058 21.9726 28.327 22.1666 28.1094 22.3086Z" fill="#1ED760"/>
</svg>
