<svg width="30" height="30" viewBox="0 0 30 30" fill="none" xmlns="http://www.w3.org/2000/svg">
<g clip-path="url(#clip0_41_70)">
<path d="M3.75 7.5C3.75 7.25136 3.84877 7.0129 4.02459 6.83709C4.2004 6.66127 4.43886 6.5625 4.6875 6.5625H25.3125C25.5611 6.5625 25.7996 6.66127 25.9754 6.83709C26.1512 7.0129 26.25 7.25136 26.25 7.5C26.25 7.74864 26.1512 7.9871 25.9754 8.16291C25.7996 8.33873 25.5611 8.4375 25.3125 8.4375H4.6875C4.43886 8.4375 4.2004 8.33873 4.02459 8.16291C3.84877 7.9871 3.75 7.74864 3.75 7.5ZM15.9375 14.0625H4.6875C4.43886 14.0625 4.2004 14.1613 4.02459 14.3371C3.84877 14.5129 3.75 14.7514 3.75 15C3.75 15.2486 3.84877 15.4871 4.02459 15.6629C4.2004 15.8387 4.43886 15.9375 4.6875 15.9375H15.9375C16.1861 15.9375 16.4246 15.8387 16.6004 15.6629C16.7762 15.4871 16.875 15.2486 16.875 15C16.875 14.7514 16.7762 14.5129 16.6004 14.3371C16.4246 14.1613 16.1861 14.0625 15.9375 14.0625ZM15.9375 21.5625H4.6875C4.43886 21.5625 4.2004 21.6613 4.02459 21.8371C3.84877 22.0129 3.75 22.2514 3.75 22.5C3.75 22.7486 3.84877 22.9871 4.02459 23.1629C4.2004 23.3387 4.43886 23.4375 4.6875 23.4375H15.9375C16.1861 23.4375 16.4246 23.3387 16.6004 23.1629C16.7762 22.9871 16.875 22.7486 16.875 22.5C16.875 22.2514 16.7762 22.0129 16.6004 21.8371C16.4246 21.6613 16.1861 21.5625 15.9375 21.5625ZM28.6172 17.9531L21.1172 13.2656C20.9752 13.1781 20.8125 13.13 20.6457 13.1263C20.479 13.1226 20.3143 13.1634 20.1686 13.2446C20.0229 13.3258 19.9015 13.4445 19.8169 13.5882C19.7324 13.732 19.6877 13.8957 19.6875 14.0625V23.4375C19.6884 23.6044 19.7333 23.7681 19.8176 23.9121C19.902 24.0562 20.0228 24.1754 20.168 24.2578C20.3139 24.3388 20.4789 24.3793 20.6458 24.3752C20.8126 24.371 20.9754 24.3224 21.1172 24.2344L28.6172 19.5469C28.7529 19.4628 28.8648 19.3455 28.9424 19.206C29.0201 19.0666 29.0608 18.9096 29.0608 18.75C29.0608 18.5904 29.0201 18.4334 28.9424 18.294C28.8648 18.1545 28.7529 18.0372 28.6172 17.9531Z" fill="white"/>
</g>
<defs>
<clipPath id="clip0_41_70">
<rect width="30" height="30" fill="white"/>
</clipPath>
</defs>
</svg>
