<svg width="26" height="26" viewBox="0 0 26 26" fill="none" xmlns="http://www.w3.org/2000/svg">
<g clip-path="url(#clip0_49_24)">
<path d="M2.43743 13.0001C2.44012 11.0615 3.2114 9.2031 4.58218 7.83232C5.95296 6.46154 7.81136 5.69025 9.74993 5.68757H19.4999V4.06257C19.4994 3.90216 19.5464 3.74519 19.635 3.61145C19.7235 3.4777 19.8497 3.37316 19.9976 3.31101C20.1477 3.25247 20.3112 3.23762 20.4694 3.26817C20.6276 3.29873 20.7739 3.37344 20.8913 3.48366L23.3288 5.92116C23.4814 6.07521 23.567 6.28325 23.567 6.50007C23.567 6.71688 23.4814 6.92493 23.3288 7.07897L20.8913 9.51647C20.7354 9.66555 20.5282 9.74916 20.3124 9.75007C20.2046 9.7496 20.0978 9.72893 19.9976 9.68913C19.8497 9.62697 19.7235 9.52243 19.635 9.38869C19.5464 9.25494 19.4994 9.09798 19.4999 8.93757V7.31257H9.74993C8.24151 7.31257 6.79488 7.91179 5.72826 8.9784C4.66165 10.045 4.06243 11.4917 4.06243 13.0001C4.06243 13.2156 3.97683 13.4222 3.82446 13.5746C3.67208 13.727 3.46542 13.8126 3.24993 13.8126C3.03444 13.8126 2.82778 13.727 2.67541 13.5746C2.52303 13.4222 2.43743 13.2156 2.43743 13.0001ZM22.7499 12.1876C22.5344 12.1876 22.3278 12.2732 22.1754 12.4255C22.023 12.5779 21.9374 12.7846 21.9374 13.0001C21.9374 14.5085 21.3382 15.9551 20.2716 17.0217C19.205 18.0884 17.7584 18.6876 16.2499 18.6876H6.49993V17.0626C6.50043 16.9022 6.45344 16.7452 6.36488 16.6114C6.27632 16.4777 6.15015 16.3732 6.00228 16.311C5.8522 16.2525 5.68861 16.2376 5.53045 16.2682C5.37228 16.2987 5.226 16.3734 5.10853 16.4837L2.67103 18.9212C2.51845 19.0752 2.43286 19.2833 2.43286 19.5001C2.43286 19.7169 2.51845 19.9249 2.67103 20.079L5.10853 22.5165C5.26449 22.6656 5.47168 22.7492 5.68743 22.7501C5.79526 22.7496 5.90205 22.7289 6.00228 22.6891C6.15015 22.627 6.27632 22.5224 6.36488 22.3887C6.45344 22.2549 6.50043 22.098 6.49993 21.9376V20.3126H16.2499C18.1885 20.3099 20.0469 19.5386 21.4177 18.1678C22.7885 16.797 23.5597 14.9386 23.5624 13.0001C23.5624 12.7846 23.4768 12.5779 23.3245 12.4255C23.1721 12.2732 22.9654 12.1876 22.7499 12.1876Z" fill="white"/>
</g>
<defs>
<clipPath id="clip0_49_24">
<rect width="26" height="26" fill="white"/>
</clipPath>
</defs>
</svg>
