<svg width="26" height="26" viewBox="0 0 26 26" fill="none" xmlns="http://www.w3.org/2000/svg">
<g clip-path="url(#clip0_49_42)">
<path d="M24.1414 18.1087C24.294 18.2627 24.3796 18.4708 24.3796 18.6876C24.3796 18.9044 24.294 19.1124 24.1414 19.2665L21.7039 21.704C21.5479 21.8531 21.3408 21.9367 21.125 21.9376C21.0172 21.9371 20.9104 21.9164 20.8102 21.8766C20.6623 21.8145 20.5361 21.7099 20.4476 21.5762C20.359 21.4424 20.312 21.2855 20.3125 21.1251V19.5001C19.1637 19.4836 18.0349 19.1975 17.017 18.6647C15.999 18.132 15.1206 17.3675 14.4523 16.4329L10.2172 10.5118C9.69164 9.77575 8.99842 9.1754 8.19486 8.76038C7.39131 8.34536 6.5005 8.12758 5.59609 8.12507H3.25C3.03451 8.12507 2.82785 8.03947 2.67548 7.88709C2.5231 7.73472 2.4375 7.52806 2.4375 7.31257C2.4375 7.09708 2.5231 6.89042 2.67548 6.73804C2.82785 6.58567 3.03451 6.50007 3.25 6.50007H5.59609C6.76038 6.50211 7.90744 6.78137 8.94238 7.31473C9.97732 7.8481 10.8704 8.62023 11.5477 9.56726L15.7828 15.4884C16.2981 16.2132 16.9765 16.8068 17.7633 17.2213C18.5501 17.6359 19.4233 17.8598 20.3125 17.8751V16.2501C20.312 16.0897 20.359 15.9327 20.4476 15.7989C20.5361 15.6652 20.6623 15.5607 20.8102 15.4985C20.9602 15.44 21.1238 15.4251 21.282 15.4557C21.4401 15.4862 21.5864 15.5609 21.7039 15.6712L24.1414 18.1087ZM14.5234 10.8673C14.6106 10.9297 14.7094 10.9743 14.8139 10.9984C14.9184 11.0225 15.0266 11.0257 15.1324 11.0077C15.2381 10.9898 15.3393 10.9511 15.43 10.8939C15.5207 10.8366 15.5992 10.762 15.6609 10.6743L15.7828 10.5118C16.2981 9.78698 16.9765 9.19338 17.7633 8.77881C18.5501 8.36425 19.4233 8.14032 20.3125 8.12507V9.75007C20.312 9.91048 20.359 10.0674 20.4476 10.2012C20.5361 10.3349 20.6623 10.4395 20.8102 10.5016C20.9104 10.5414 21.0172 10.5621 21.125 10.5626C21.3408 10.5617 21.5479 10.4781 21.7039 10.329L24.1414 7.89147C24.294 7.73743 24.3796 7.52938 24.3796 7.31257C24.3796 7.09575 24.294 6.88771 24.1414 6.73366L21.7039 4.29616C21.5864 4.18594 21.4401 4.11123 21.282 4.08067C21.1238 4.05012 20.9602 4.06497 20.8102 4.12351C20.6623 4.18566 20.5361 4.2902 20.4476 4.42395C20.359 4.55769 20.312 4.71466 20.3125 4.87507V6.50007C19.1637 6.51649 18.0349 6.80262 17.017 7.33539C15.999 7.86816 15.1206 8.63266 14.4523 9.56726L14.3406 9.72976C14.2777 9.81635 14.2324 9.91453 14.2075 10.0187C14.1826 10.1228 14.1786 10.2308 14.1956 10.3365C14.2126 10.4422 14.2503 10.5435 14.3065 10.6346C14.3628 10.7257 14.4365 10.8048 14.5234 10.8673ZM11.4766 15.1329C11.3894 15.0704 11.2907 15.0259 11.1861 15.0018C11.0816 14.9777 10.9734 14.9745 10.8676 14.9924C10.7619 15.0104 10.6607 15.0491 10.57 15.1063C10.4793 15.1635 10.4008 15.2381 10.3391 15.3259L10.2172 15.4884C9.69164 16.2244 8.99842 16.8247 8.19486 17.2398C7.39131 17.6548 6.5005 17.8726 5.59609 17.8751H3.25C3.03451 17.8751 2.82785 17.9607 2.67548 18.113C2.5231 18.2654 2.4375 18.4721 2.4375 18.6876C2.4375 18.9031 2.5231 19.1097 2.67548 19.2621C2.82785 19.4145 3.03451 19.5001 3.25 19.5001H5.59609C6.76038 19.498 7.90744 19.2188 8.94238 18.6854C9.97732 18.152 10.8704 17.3799 11.5477 16.4329L11.6594 16.2704C11.7223 16.1838 11.7676 16.0856 11.7925 15.9815C11.8174 15.8774 11.8214 15.7693 11.8044 15.6636C11.7875 15.5579 11.7497 15.4566 11.6935 15.3655C11.6372 15.2744 11.5635 15.1954 11.4766 15.1329Z" fill="white"/>
</g>
<defs>
<clipPath id="clip0_49_42">
<rect width="26" height="26" fill="white"/>
</clipPath>
</defs>
</svg>
