<svg width="30" height="30" viewBox="0 0 30 30" fill="none" xmlns="http://www.w3.org/2000/svg">
<g clip-path="url(#clip0_44_103)">
<path d="M24.375 4.6875V25.3125C24.375 25.5611 24.2763 25.7996 24.1004 25.9754C23.9246 26.1512 23.6862 26.25 23.4375 26.25C23.1889 26.25 22.9504 26.1512 22.7746 25.9754C22.5988 25.7996 22.5 25.5611 22.5 25.3125V16.6758L8.47269 25.2422C8.17873 25.4181 7.84263 25.5113 7.50003 25.5117C7.17995 25.516 6.86448 25.4352 6.58597 25.2773C6.29326 25.1153 6.04957 24.8775 5.88049 24.5888C5.7114 24.3001 5.62316 23.9713 5.62503 23.6367V6.36328C5.62459 6.03048 5.71274 5.70355 5.88042 5.41607C6.04811 5.1286 6.28929 4.89094 6.57919 4.72749C6.8691 4.56405 7.19728 4.48071 7.53005 4.48604C7.86281 4.49137 8.18816 4.58517 8.47269 4.75781L22.5 13.3242V4.6875C22.5 4.43886 22.5988 4.2004 22.7746 4.02459C22.9504 3.84877 23.1889 3.75 23.4375 3.75C23.6862 3.75 23.9246 3.84877 24.1004 4.02459C24.2763 4.2004 24.375 4.43886 24.375 4.6875Z" fill="white"/>
</g>
<defs>
<clipPath id="clip0_44_103">
<rect width="30" height="30" fill="white"/>
</clipPath>
</defs>
</svg>
