<svg width="30" height="30" viewBox="0 0 30 30" fill="none" xmlns="http://www.w3.org/2000/svg">
<g clip-path="url(#clip0_44_114)">
<path d="M5.62497 4.6875V25.3125C5.62497 25.5611 5.72374 25.7996 5.89956 25.9754C6.07537 26.1512 6.31383 26.25 6.56247 26.25C6.81111 26.25 7.04957 26.1512 7.22538 25.9754C7.4012 25.7996 7.49997 25.5611 7.49997 25.3125V16.6758L21.5273 25.2422C21.8213 25.4181 22.1574 25.5113 22.5 25.5117C22.8201 25.516 23.1355 25.4352 23.414 25.2773C23.7067 25.1153 23.9504 24.8775 24.1195 24.5888C24.2886 24.3001 24.3768 23.9713 24.375 23.6367V6.36328C24.3754 6.03048 24.2873 5.70355 24.1196 5.41607C23.9519 5.1286 23.7107 4.89094 23.4208 4.72749C23.1309 4.56405 22.8027 4.48071 22.47 4.48604C22.1372 4.49137 21.8118 4.58517 21.5273 4.75781L7.49997 13.3242V4.6875C7.49997 4.43886 7.4012 4.2004 7.22538 4.02459C7.04957 3.84877 6.81111 3.75 6.56247 3.75C6.31383 3.75 6.07537 3.84877 5.89956 4.02459C5.72374 4.2004 5.62497 4.43886 5.62497 4.6875Z" fill="white"/>
</g>
<defs>
<clipPath id="clip0_44_114">
<rect width="30" height="30" fill="white" transform="matrix(-1 0 0 1 30 0)"/>
</clipPath>
</defs>
</svg>
