<svg width="400" height="54" viewBox="0 0 400 54" fill="none" xmlns="http://www.w3.org/2000/svg">
<g clip-path="url(#clip0_9_19)">
<path fill-rule="evenodd" clip-rule="evenodd" d="M29.8174 0.786182C15.5 0.215458 3.43588 11.3734 2.8668 25.7072C2.29773 40.0411 13.4441 52.1201 27.7599 52.6908C42.0773 53.2599 54.1414 42.102 54.7105 27.7681C55.2779 13.4342 44.1332 1.35362 29.8174 0.786182ZM40.7681 38.8355C40.4457 39.4063 39.8174 39.6908 39.2056 39.6053C39.0181 39.579 38.8306 39.5165 38.6546 39.4178C35.2269 37.4638 31.4885 36.1908 27.5477 35.6349C23.6069 35.0806 19.6645 35.273 15.829 36.2056C14.9967 36.4079 14.1595 35.8964 13.9589 35.0642C13.7566 34.2303 14.2665 33.3915 15.0987 33.1908C19.3158 32.1645 23.6497 31.954 27.9802 32.5642C32.3092 33.1744 36.4161 34.5724 40.1891 36.7204C40.9309 37.1448 41.1924 38.0905 40.7697 38.8355H40.7681ZM44.1776 32.0181C43.648 32.9951 42.4259 33.3619 41.449 32.8323C37.4358 30.6596 33.0921 29.2336 28.5362 28.5921C23.9819 27.9507 19.4145 28.125 14.9589 29.1053C14.7171 29.1579 14.4786 29.1661 14.2451 29.1332C13.4375 29.0198 12.7451 28.4161 12.5592 27.5691C12.3207 26.4819 13.0082 25.4063 14.0938 25.1661C19.0197 24.0822 24.0674 23.8898 29.0987 24.5971C34.1283 25.3043 38.9292 26.8799 43.3634 29.2829C44.3437 29.8125 44.7056 31.0346 44.1776 32.0148V32.0181ZM47.9572 24.3306C47.4588 25.2895 46.4227 25.7862 45.4128 25.6431C45.1398 25.6053 44.8717 25.5197 44.6134 25.3865C39.9424 22.954 34.9112 21.347 29.6579 20.6086C24.4062 19.8701 19.125 20.0263 13.9655 21.0757C12.6234 21.3487 11.3174 20.4803 11.0444 19.1382C10.7714 17.7961 11.6398 16.4868 12.9786 16.2138C18.6941 15.0526 24.5362 14.8799 30.3487 15.6974C36.1612 16.5132 41.7286 18.2944 46.9013 20.9885C48.1167 21.6201 48.5888 23.1184 47.9572 24.3339V24.3306Z" fill="#1ED760"/>
<path fill-rule="evenodd" clip-rule="evenodd" d="M75.5872 40.3124C71.1118 40.3124 67.2714 38.7615 65.6661 36.9999C65.5131 36.8272 65.4918 36.7319 65.4918 36.5213V31.2763C65.4918 31.0279 65.7039 30.9325 65.875 31.1447C67.8043 33.5559 71.9161 35.5263 75.2812 35.5263C77.9572 35.5263 79.7549 34.7993 79.7549 32.4259C79.7549 31.0082 79.0872 30.0904 75.4342 29.0575L73.3322 28.4638C68.4572 27.0871 65.4918 25.4588 65.4918 20.7894C65.4918 16.6562 69.3141 13.0181 75.7006 13.0181C78.8355 13.0181 81.9507 13.995 83.7484 15.3355C83.8997 15.449 83.9589 15.5658 83.9589 15.7746V20.5427C83.9589 20.8667 83.6924 20.9621 83.4424 20.7533C81.9885 19.5477 79.1793 17.921 75.852 17.921C72.5263 17.921 70.9589 19.4144 70.9589 20.7911C70.9589 22.2467 71.9704 22.648 75.5839 23.7204L77.3816 24.2565C82.9441 25.921 85.2204 28.2565 85.2204 32.125C85.2204 37.1003 81.0921 40.3174 75.5872 40.3174V40.3124ZM114.567 30.3207C114.567 27.2763 116.671 25.0197 119.635 25.0197C122.599 25.0197 124.681 27.2763 124.681 30.3207C124.681 33.3634 122.577 35.6217 119.635 35.6217C116.692 35.6217 114.567 33.3634 114.567 30.3207ZM119.614 40.3124C125.788 40.3124 130.089 35.8914 130.089 30.3207C130.089 24.7483 125.788 20.3289 119.614 20.3289C113.439 20.3289 109.156 24.7105 109.156 30.3207C109.156 35.9292 113.419 40.3124 119.614 40.3124ZM156.893 19.1809V20.7894H153.643C153.47 20.7894 153.375 20.8832 153.375 21.0575V24.8832C153.375 25.0575 153.47 25.1529 153.643 25.1529H156.893V39.5838C156.893 39.7565 156.989 39.8519 157.161 39.8519H162.056C162.229 39.8519 162.324 39.7565 162.324 39.5838V25.1529H166.512L172.591 38.3782L169.321 45.5723C169.227 45.7845 169.341 45.8799 169.533 45.8799H174.752C174.924 45.8799 175 45.842 175.076 45.6677L185.877 21.0921C185.952 20.9194 185.859 20.7862 185.666 20.7862H180.771C180.599 20.7862 180.523 20.824 180.447 20.9983L175.515 32.8651L170.564 20.9983C170.489 20.824 170.411 20.7862 170.239 20.7862H162.324V19.523C162.324 17.4556 163.72 16.4983 165.515 16.4983C166.586 16.4983 167.752 17.0543 168.574 17.551C168.767 17.6644 168.9 17.5312 168.824 17.3585L167.102 13.245C167.044 13.1118 166.969 13.0329 166.834 12.9572C165.992 12.5181 164.617 12.1332 163.276 12.1332C159.225 12.1332 156.891 15.2335 156.891 19.1776L156.893 19.1809ZM99.273 40.1957C104.168 40.1957 107.684 35.9654 107.684 30.2829C107.684 24.5986 104.127 20.444 99.2319 20.444C95.6003 20.444 93.4967 22.6644 92.273 24.8832V21.0575C92.273 20.8832 92.1776 20.7894 92.0049 20.7894H87.2056C87.0329 20.7894 86.9375 20.8832 86.9375 21.0575V45.6134C86.9375 45.7861 87.0329 45.8815 87.2056 45.8815H92.0049C92.1776 45.8815 92.273 45.7861 92.273 45.6134V35.7944C93.4967 38.0147 95.5625 40.1957 99.2697 40.1957H99.273ZM140.109 40.12C141.714 40.12 143.262 39.7006 144.179 39.1628C144.313 39.0871 144.331 39.0115 144.331 38.8766V35.2384C144.331 35.0476 144.237 34.9901 144.063 35.0871C143.508 35.393 142.783 35.643 141.79 35.643C140.222 35.643 139.229 34.7236 139.229 32.694V25.1529H144.008C144.181 25.1529 144.276 25.0575 144.276 24.8832V21.0575C144.276 20.8832 144.181 20.7894 144.008 20.7894H139.229V15.7944C139.229 15.5822 139.095 15.4687 138.903 15.62L130.357 22.3585C130.243 22.4523 130.206 22.551 130.206 22.7023V24.8832C130.206 25.0575 130.301 25.1529 130.474 25.1529H133.801V33.4967C133.801 38.0147 136.4 40.12 140.11 40.12H140.109ZM145.633 15.125C145.633 16.8487 146.97 18.1496 148.806 18.1496C150.641 18.1496 152.016 16.8487 152.016 15.125C152.016 13.4013 150.679 12.1003 148.806 12.1003C146.933 12.1003 145.633 13.4013 145.633 15.125ZM146.377 39.8536H151.271C151.444 39.8536 151.54 39.7598 151.54 39.5855V21.0592C151.54 20.8865 151.444 20.7911 151.271 20.7911H146.377C146.204 20.7911 146.109 20.8865 146.109 21.0592V39.5855C146.109 39.7598 146.204 39.8536 146.377 39.8536ZM92.1595 30.2467C93.0395 27.2977 95.0641 25.0411 97.8174 25.0411C100.571 25.0411 102.252 27.0296 102.252 30.2845C102.252 33.5394 100.434 35.5674 97.8174 35.5674C95.199 35.5674 93.0362 33.0411 92.1595 30.2467Z" fill="#1ED760"/>
<path fill-rule="evenodd" clip-rule="evenodd" d="M192.146 21.9145C191.895 21.4802 191.546 21.1398 191.1 20.8931C190.655 20.648 190.158 20.5247 189.602 20.5247C189.048 20.5247 188.549 20.648 188.104 20.8931C187.658 21.1398 187.309 21.4802 187.057 21.9145C186.806 22.3487 186.681 22.8404 186.681 23.3881C186.681 23.9375 186.806 24.4194 187.057 24.8536C187.309 25.2878 187.658 25.6266 188.104 25.8733C188.549 26.12 189.048 26.2418 189.602 26.2418C190.158 26.2418 190.655 26.1184 191.1 25.8733C191.546 25.6299 191.895 25.2878 192.146 24.8536C192.398 24.4194 192.523 23.9325 192.523 23.3881C192.523 22.8454 192.398 22.3487 192.146 21.9145ZM191.689 24.6102C191.485 24.972 191.201 25.2516 190.837 25.4556C190.475 25.6579 190.062 25.7599 189.605 25.7599C189.146 25.7599 188.722 25.6579 188.36 25.4556C187.997 25.2549 187.715 24.972 187.513 24.6102C187.311 24.2533 187.212 23.8437 187.212 23.3881C187.212 22.9326 187.311 22.5263 187.513 22.171C187.715 21.8141 187.997 21.5345 188.36 21.3322C188.722 21.1299 189.138 21.0279 189.605 21.0279C190.072 21.0279 190.475 21.1299 190.837 21.3322C191.201 21.5345 191.485 21.8174 191.689 22.1776C191.893 22.5378 191.995 22.9441 191.995 23.3997C191.995 23.8552 191.893 24.2533 191.689 24.6135V24.6102Z" fill="#1ED760"/>
<path fill-rule="evenodd" clip-rule="evenodd" d="M190.595 23.3339C190.789 23.1908 190.888 23.0016 190.888 22.7664C190.888 22.5312 190.793 22.3322 190.604 22.1891C190.413 22.0477 190.138 21.9753 189.778 21.9753H188.507V24.6348H189.122V23.5789H189.456L190.263 24.6348H191.018L190.133 23.5148C190.321 23.4786 190.48 23.4194 190.599 23.3306L190.595 23.3339ZM189.681 23.0987H189.122V22.449H189.702C189.875 22.449 190.008 22.4737 190.1 22.5296C190.192 22.5839 190.24 22.6661 190.24 22.7812C190.24 22.8881 190.191 22.9687 190.095 23.0197C189.998 23.0756 189.86 23.1003 189.681 23.1003V23.0987Z" fill="#1ED760"/>
<path fill-rule="evenodd" clip-rule="evenodd" d="M207.625 22.5768H203.05V38.789H200.613V22.5764H197.053V20.4459H200.613V17.485C200.613 13.7499 202.866 11.7895 205.773 11.7895C206.681 11.7895 207.335 11.9747 207.735 12.1592V14.1566C207.408 14.0084 206.878 13.8884 206.115 13.8884C204.371 13.8884 203.05 14.9048 203.05 17.7158V20.4459H207.625V22.5768ZM216.385 39.2244C211.352 39.2244 207.416 35.3465 207.416 29.6817C207.416 23.9789 211.314 20.1389 216.385 20.1389C221.418 20.1389 225.354 23.9789 225.354 29.6817C225.354 35.3465 221.418 39.2244 216.385 39.2244ZM209.725 29.6817C209.725 34.3962 212.828 37.1713 216.385 37.1713C219.942 37.1713 223.046 34.3962 223.046 29.6817C223.046 24.9292 219.942 22.192 216.385 22.192C212.828 22.192 209.725 24.9292 209.725 29.6817ZM236.585 20.557C236.283 20.4434 235.791 20.3671 235.185 20.3671C232.801 20.3671 230.72 21.4695 229.622 23.9789V20.5949H227.39V38.7305H229.66V28.8833C229.66 24.7394 231.931 22.7621 234.996 22.7621C235.601 22.7621 236.169 22.8379 236.585 22.9524V20.557ZM244.074 36.912H249.322C254.331 36.912 258.727 33.5937 258.727 26.957C258.727 20.2871 254.399 16.9019 249.39 16.9019H244.074V36.912ZM249.39 38.789H241.927V15.0248H249.458C255.592 15.0248 260.942 19.1474 260.942 26.9575C260.942 34.733 255.524 38.789 249.39 38.789ZM264.542 28.2206H276.497C276.422 24.8438 274.279 22.1878 270.519 22.1878C267.173 22.1878 264.767 24.8812 264.542 28.2206ZM276.76 32.888L278.753 33.6088C277.738 36.6825 275.03 39.2244 270.895 39.2244C266.158 39.2244 262.173 35.696 262.173 29.6244C262.173 23.933 266.008 20.1389 270.482 20.1389C275.783 20.1389 278.828 23.933 278.865 29.2833C278.865 29.5865 278.865 29.8147 278.828 30.1179H264.467V30.2695C264.504 34.4438 267.361 37.1755 270.895 37.1755C274.129 37.1755 276.008 35.2783 276.76 32.888ZM295.434 20.632H292.915L287.126 36.1511L281.411 20.632H278.854L285.96 38.7313H288.329L295.434 20.632ZM297.268 28.221H309.224C309.148 24.8442 307.006 22.1878 303.246 22.1878C299.9 22.1878 297.494 24.8817 297.268 28.221ZM309.487 32.888L311.479 33.6088C310.465 36.6825 307.757 39.2244 303.622 39.2244C298.885 39.2244 294.9 35.696 294.9 29.6244C294.9 23.933 298.735 20.1389 303.208 20.1389C308.509 20.1389 311.555 23.933 311.592 29.2833C311.592 29.5865 311.592 29.8147 311.554 30.1179H297.193V30.2695C297.231 34.4438 300.088 37.1755 303.622 37.1755C306.855 37.1755 308.735 35.2783 309.487 32.888ZM315.256 38.789V14.589H313.211V38.789H315.256ZM325.675 38.8459C320.678 38.8459 316.771 35.0265 316.771 29.4471C316.771 23.8303 320.64 20.0484 325.675 20.0484C330.672 20.0484 334.579 23.8303 334.579 29.4471C334.579 35.0261 330.672 38.8459 325.675 38.8459ZM319.063 29.4471C319.063 34.0905 322.143 36.824 325.675 36.824C329.207 36.824 332.287 34.0905 332.287 29.4471C332.287 24.7667 329.207 22.0703 325.675 22.0703C322.143 22.0703 319.063 24.7667 319.063 29.4471ZM338.284 45.4736H336.029V20.4977H338.246V24.0551C339.11 22.2202 341.214 20.0109 344.783 20.0109C349.855 20.0109 352.898 24.1301 352.898 29.4097C352.898 34.7267 349.742 38.8459 344.708 38.8459C341.251 38.8459 339.185 36.7865 338.283 34.989L338.284 45.4736ZM350.644 29.4097C350.644 25.216 348.164 22.0328 344.407 22.0328C340.688 22.0328 338.246 25.2535 338.246 29.4097C338.246 33.6412 340.688 36.824 344.407 36.824C348.164 36.824 350.644 33.6033 350.644 29.4097ZM356.467 27.9865H368.414C368.339 24.6543 366.197 22.0328 362.441 22.0328C359.097 22.0328 356.692 24.6918 356.467 27.9865H356.467ZM368.677 32.5928L370.669 33.304C369.654 36.3372 366.949 38.8459 362.816 38.8459C358.082 38.8459 354.1 35.3638 354.1 29.3722C354.1 23.7554 357.932 20.0109 362.403 20.0109C367.7 20.0109 370.743 23.7554 370.781 29.0353C370.781 29.3347 370.781 29.5596 370.743 29.8589H356.392V30.0088C356.429 34.128 359.284 36.824 362.816 36.824C366.047 36.824 367.926 34.952 368.677 32.5928ZM381.566 20.4602V22.8194C381.153 22.7069 380.589 22.632 379.988 22.632C376.945 22.632 374.69 24.5794 374.69 28.6606V38.3591H372.437V20.4981H374.653V23.8303C375.743 21.3587 377.809 20.2733 380.176 20.2733C380.777 20.2733 381.266 20.3482 381.566 20.4602ZM382.182 33.6783L384.248 32.9667C384.586 35.1389 386.239 36.8989 389.17 36.8989C391.386 36.8989 393.152 35.5882 393.152 33.7158C393.152 32.0682 392.025 31.1697 390.109 30.7204L387.216 30.0463C384.586 29.4471 382.821 27.8745 382.821 25.2909C382.821 22.4076 385.6 20.0488 388.869 20.0488C393.039 20.0488 394.805 22.52 395.294 24.6543L393.302 25.4029C392.964 23.6808 391.725 21.9958 388.869 21.9958C386.84 21.9958 385.037 23.2686 385.037 25.141C385.037 26.6762 386.014 27.5747 387.855 27.9869L390.71 28.6236C393.678 29.2968 395.369 30.9823 395.369 33.5663C395.369 36.2248 393.114 38.8459 389.132 38.8459C384.736 38.8459 382.52 36.0374 382.182 33.6783Z" fill="#1ED760"/>
</g>
<defs>
<clipPath id="clip0_9_19">
<rect width="400" height="53.4737" fill="white"/>
</clipPath>
</defs>
</svg>
