<svg width="225" height="30" viewBox="0 0 225 30" fill="none" xmlns="http://www.w3.org/2000/svg">
<g clip-path="url(#clip0_9_31)">
<path fill-rule="evenodd" clip-rule="evenodd" d="M16.7283 0.441069C8.69585 0.120879 1.92759 6.38073 1.60833 14.4224C1.28906 22.464 7.54243 29.2406 15.5739 29.5608C23.6063 29.8801 30.3746 23.6202 30.6938 15.5786C31.0122 7.53692 24.7597 0.759413 16.7283 0.441069ZM22.8718 21.7877C22.691 22.1079 22.3385 22.2675 21.9952 22.2195C21.89 22.2047 21.7848 22.1697 21.6861 22.1143C19.7631 21.0181 17.6658 20.3039 15.4549 19.992C13.244 19.6811 11.0322 19.789 8.8804 20.3122C8.4135 20.4257 7.94382 20.1387 7.83125 19.6718C7.71775 19.204 8.0038 18.7334 8.47071 18.6208C10.8366 18.045 13.268 17.9269 15.6976 18.2693C18.1262 18.6116 20.4303 19.3959 22.547 20.601C22.9632 20.8391 23.1099 21.3697 22.8727 21.7877H22.8718ZM24.7847 17.9629C24.4875 18.511 23.8019 18.7168 23.2538 18.4197C21.0024 17.2007 18.5654 16.4007 16.0094 16.0409C13.4544 15.681 10.892 15.7788 8.39227 16.3288C8.25663 16.3583 8.12283 16.3629 7.99181 16.3444C7.53874 16.2808 7.15027 15.9421 7.046 15.4669C6.91221 14.857 7.29791 14.2535 7.90691 14.1188C10.6705 13.5107 13.5024 13.4028 16.325 13.7995C19.1467 14.1963 21.8402 15.0803 24.3279 16.4284C24.8778 16.7255 25.0809 17.4111 24.7847 17.9611V17.9629ZM26.9051 13.65C26.6255 14.188 26.0442 14.4667 25.4776 14.3864C25.3245 14.3652 25.174 14.3172 25.0292 14.2424C22.4086 12.8777 19.586 11.9762 16.6388 11.5619C13.6925 11.1476 10.7296 11.2352 7.83494 11.824C7.08199 11.9771 6.34934 11.4899 6.19616 10.737C6.04299 9.98401 6.53019 9.24952 7.2813 9.09634C10.4878 8.44489 13.7654 8.348 17.0263 8.8066C20.2872 9.26428 23.4107 10.2636 26.3127 11.775C26.9946 12.1294 27.2594 12.97 26.9051 13.6519V13.65Z" fill="white"/>
<path fill-rule="evenodd" clip-rule="evenodd" d="M42.4062 22.6162C39.8954 22.6162 37.7408 21.7461 36.8402 20.7578C36.7544 20.661 36.7424 20.6074 36.7424 20.4893V17.5467C36.7424 17.4074 36.8614 17.3539 36.9574 17.4729C38.0398 18.8256 40.3466 19.9311 42.2345 19.9311C43.7358 19.9311 44.7444 19.5232 44.7444 18.1917C44.7444 17.3963 44.3697 16.8814 42.3203 16.302L41.1411 15.9689C38.4061 15.1965 36.7424 14.283 36.7424 11.6634C36.7424 9.34454 38.8868 7.30345 42.4698 7.30345C44.2286 7.30345 45.9762 7.85155 46.9848 8.60358C47.0697 8.66725 47.1029 8.73277 47.1029 8.84995V11.525C47.1029 11.7067 46.9534 11.7603 46.8132 11.6431C45.9975 10.9667 44.4214 10.0541 42.5547 10.0541C40.6889 10.0541 39.8096 10.892 39.8096 11.6643C39.8096 12.4809 40.3771 12.7061 42.4043 13.3077L43.4129 13.6085C46.5336 14.5423 47.8106 15.8526 47.8106 18.0229C47.8106 20.8141 45.4946 22.619 42.4062 22.619V22.6162ZM64.275 17.0106C64.275 15.3026 65.4552 14.0366 67.118 14.0366C68.7808 14.0366 69.949 15.3026 69.949 17.0106C69.949 18.7177 68.7688 19.9846 67.118 19.9846C65.4672 19.9846 64.275 18.7177 64.275 17.0106ZM67.106 22.6162C70.57 22.6162 72.9829 20.1359 72.9829 17.0106C72.9829 13.8844 70.57 11.405 67.106 11.405C63.642 11.405 61.2392 13.8632 61.2392 17.0106C61.2392 20.1571 63.631 22.6162 67.106 22.6162ZM88.0208 10.7609V11.6634H86.1974C86.1006 11.6634 86.047 11.716 86.047 11.8138V13.9601C86.047 14.0579 86.1006 14.1114 86.1974 14.1114H88.0208V22.2075C88.0208 22.3043 88.0743 22.3579 88.1712 22.3579H90.9172C91.0141 22.3579 91.0676 22.3043 91.0676 22.2075V14.1114H93.4169L96.8274 21.5311L94.993 25.5671C94.9404 25.6862 95.004 25.7397 95.112 25.7397H98.0399C98.1367 25.7397 98.1792 25.7185 98.2216 25.6207L104.281 11.8332C104.324 11.7363 104.271 11.6615 104.163 11.6615H101.417C101.32 11.6615 101.278 11.6827 101.235 11.7806L98.468 18.4381L95.6906 11.7806C95.6481 11.6827 95.6048 11.6615 95.5079 11.6615H91.0676V10.9529C91.0676 9.79299 91.8511 9.25596 92.8578 9.25596C93.4585 9.25596 94.1127 9.56784 94.5741 9.84651C94.682 9.91017 94.7568 9.83543 94.7143 9.73855L93.7482 7.43079C93.7159 7.35604 93.6735 7.31175 93.5978 7.26931C93.1254 7.02294 92.3539 6.80702 91.6019 6.80702C89.3292 6.80702 88.0198 8.54637 88.0198 10.7591L88.0208 10.7609ZM55.6945 22.5507C58.4406 22.5507 60.4134 20.1774 60.4134 16.9894C60.4134 13.8004 58.4175 11.4696 55.6714 11.4696C53.634 11.4696 52.4539 12.7153 51.7673 13.9601V11.8138C51.7673 11.716 51.7138 11.6634 51.6169 11.6634H48.9244C48.8275 11.6634 48.774 11.716 48.774 11.8138V25.5902C48.774 25.6871 48.8275 25.7406 48.9244 25.7406H51.6169C51.7138 25.7406 51.7673 25.6871 51.7673 25.5902V20.0815C52.4539 21.3272 53.6128 22.5507 55.6927 22.5507H55.6945ZM78.6042 22.5083C79.5048 22.5083 80.3731 22.273 80.888 21.9712C80.9628 21.9288 80.9729 21.8864 80.9729 21.8107V19.7696C80.9729 19.6626 80.9203 19.6303 80.8225 19.6847C80.5115 19.8563 80.1046 19.9966 79.5473 19.9966C78.6679 19.9966 78.1106 19.4808 78.1106 18.3421V14.1114H80.792C80.8889 14.1114 80.9425 14.0579 80.9425 13.9601V11.8138C80.9425 11.716 80.8889 11.6634 80.792 11.6634H78.1106V8.86103C78.1106 8.74199 78.0358 8.67832 77.9279 8.76322L73.1333 12.5437C73.0697 12.5963 73.0484 12.6516 73.0484 12.7365V13.9601C73.0484 14.0579 73.102 14.1114 73.1988 14.1114H75.0655V18.7924C75.0655 21.3272 76.5235 22.5083 78.6052 22.5083H78.6042ZM81.7037 8.48547C81.7037 9.4525 82.4539 10.1824 83.4837 10.1824C84.5134 10.1824 85.2849 9.4525 85.2849 8.48547C85.2849 7.51845 84.5347 6.78856 83.4837 6.78856C82.4327 6.78856 81.7037 7.51845 81.7037 8.48547ZM82.1208 22.3588H84.8669C84.9637 22.3588 85.0173 22.3062 85.0173 22.2084V11.8147C85.0173 11.7178 84.9637 11.6643 84.8669 11.6643H82.1208C82.0239 11.6643 81.9704 11.7178 81.9704 11.8147V22.2084C81.9704 22.3062 82.0239 22.3588 82.1208 22.3588ZM51.7037 16.9691C52.1973 15.3146 53.3332 14.0486 54.8779 14.0486C56.4225 14.0486 57.3656 15.1642 57.3656 16.9903C57.3656 18.8164 56.346 19.9541 54.8779 19.9541C53.4089 19.9541 52.1955 18.5368 51.7037 16.9691Z" fill="white"/>
<path fill-rule="evenodd" clip-rule="evenodd" d="M107.799 12.2945C107.657 12.0509 107.462 11.8599 107.212 11.7215C106.962 11.584 106.683 11.5148 106.371 11.5148C106.06 11.5148 105.781 11.584 105.531 11.7215C105.28 11.8599 105.085 12.0509 104.944 12.2945C104.803 12.5381 104.732 12.814 104.732 13.1213C104.732 13.4295 104.803 13.6999 104.944 13.9435C105.085 14.1871 105.28 14.3771 105.531 14.5156C105.781 14.654 106.06 14.7223 106.371 14.7223C106.683 14.7223 106.962 14.653 107.212 14.5156C107.462 14.379 107.657 14.1871 107.799 13.9435C107.94 13.6999 108.01 13.4267 108.01 13.1213C108.01 12.8168 107.94 12.5381 107.799 12.2945ZM107.542 13.8069C107.428 14.0099 107.268 14.1668 107.064 14.2812C106.861 14.3947 106.63 14.4519 106.373 14.4519C106.116 14.4519 105.877 14.3947 105.674 14.2812C105.471 14.1686 105.313 14.0099 105.199 13.8069C105.086 13.6067 105.03 13.3769 105.03 13.1213C105.03 12.8657 105.086 12.6378 105.199 12.4385C105.313 12.2382 105.471 12.0814 105.674 11.9679C105.877 11.8544 106.111 11.7972 106.373 11.7972C106.635 11.7972 106.861 11.8544 107.064 11.9679C107.268 12.0814 107.428 12.2401 107.542 12.4422C107.657 12.6443 107.714 12.8722 107.714 13.1278C107.714 13.3834 107.657 13.6067 107.542 13.8087V13.8069Z" fill="white"/>
<path fill-rule="evenodd" clip-rule="evenodd" d="M106.928 13.0909C107.037 13.0106 107.093 12.9045 107.093 12.7725C107.093 12.6406 107.039 12.5289 106.933 12.4486C106.826 12.3693 106.672 12.3287 106.47 12.3287H105.757V13.8207H106.102V13.2283H106.289L106.742 13.8207H107.166L106.669 13.1924C106.774 13.1721 106.864 13.1388 106.93 13.089L106.928 13.0909ZM106.415 12.9589H106.102V12.5944H106.427C106.524 12.5944 106.599 12.6083 106.651 12.6396C106.702 12.6701 106.729 12.7162 106.729 12.7808C106.729 12.8408 106.702 12.886 106.648 12.9146C106.594 12.946 106.516 12.9598 106.415 12.9598V12.9589Z" fill="white"/>
<path fill-rule="evenodd" clip-rule="evenodd" d="M116.483 12.6661H113.916V21.7616H112.549V12.6659H110.551V11.4706H112.549V9.80952C112.549 7.71401 113.813 6.61417 115.443 6.61417C115.953 6.61417 116.32 6.71811 116.544 6.82157V7.9422C116.361 7.85905 116.064 7.79173 115.636 7.79173C114.657 7.79173 113.916 8.36196 113.916 9.93897V11.4706H116.483V12.6661ZM121.397 22.0058C118.574 22.0058 116.366 19.8302 116.366 16.6521C116.366 13.4527 118.552 11.2984 121.397 11.2984C124.221 11.2984 126.429 13.4527 126.429 16.6521C126.429 19.8302 124.221 22.0058 121.397 22.0058ZM117.661 16.6521C117.661 19.2971 119.402 20.854 121.397 20.854C123.393 20.854 125.134 19.2971 125.134 16.6521C125.134 13.9859 123.393 12.4502 121.397 12.4502C119.402 12.4502 117.661 13.9859 117.661 16.6521ZM132.73 11.533C132.56 11.4692 132.284 11.4264 131.945 11.4264C130.607 11.4264 129.439 12.0449 128.824 13.4527V11.5542H127.571V21.7287H128.845V16.2042C128.845 13.8794 130.119 12.7701 131.838 12.7701C132.178 12.7701 132.496 12.8126 132.73 12.8768V11.533ZM136.931 20.7085H139.875C142.686 20.7085 145.152 18.8468 145.152 15.1235C145.152 11.3816 142.724 9.48236 139.914 9.48236H136.931V20.7085ZM139.914 21.7616H135.727V8.42929H139.952C143.393 8.42929 146.395 10.7421 146.395 15.1238C146.395 19.486 143.355 21.7616 139.914 21.7616ZM148.414 15.8324H155.121C155.079 13.9379 153.877 12.4479 151.768 12.4479C149.891 12.4479 148.541 13.959 148.414 15.8324ZM155.269 18.4509L156.387 18.8553C155.818 20.5797 154.299 22.0058 151.979 22.0058C149.321 22.0058 147.085 20.0263 147.085 16.62C147.085 13.427 149.237 11.2984 151.747 11.2984C154.721 11.2984 156.429 13.427 156.45 16.4286C156.45 16.5987 156.45 16.7268 156.429 16.8968H148.372V16.9819C148.393 19.3238 149.996 20.8564 151.979 20.8564C153.793 20.8564 154.847 19.792 155.269 18.4509ZM165.745 11.575H164.332L161.084 20.2816L157.878 11.575H156.444L160.431 21.7292H161.759L165.745 11.575ZM166.775 15.8327H173.482C173.44 13.9382 172.238 12.4479 170.128 12.4479C168.251 12.4479 166.901 13.9592 166.775 15.8327ZM173.63 18.4509L174.747 18.8553C174.178 20.5797 172.659 22.0058 170.339 22.0058C167.682 22.0058 165.446 20.0263 165.446 16.62C165.446 13.427 167.597 11.2984 170.107 11.2984C173.081 11.2984 174.79 13.427 174.811 16.4286C174.811 16.5987 174.811 16.7268 174.789 16.8968H166.732V16.9819C166.754 19.3238 168.356 20.8564 170.339 20.8564C172.153 20.8564 173.208 19.792 173.63 18.4509ZM176.866 21.7616V8.1848H175.719V21.7616H176.866ZM182.711 21.7934C179.908 21.7934 177.716 19.6507 177.716 16.5205C177.716 13.3694 179.887 11.2476 182.711 11.2476C185.515 11.2476 187.707 13.3694 187.707 16.5205C187.707 19.6505 185.515 21.7934 182.711 21.7934ZM179.002 16.5205C179.002 19.1256 180.73 20.6591 182.711 20.6591C184.693 20.6591 186.421 19.1256 186.421 16.5205C186.421 13.8947 184.693 12.382 182.711 12.382C180.73 12.382 179.002 13.8947 179.002 16.5205ZM189.785 25.5118H188.52V11.4997H189.764V13.4955C190.249 12.4661 191.429 11.2266 193.432 11.2266C196.277 11.2266 197.984 13.5375 197.984 16.4995C197.984 19.4825 196.214 21.7934 193.389 21.7934C191.45 21.7934 190.291 20.6381 189.785 19.6297L189.785 25.5118ZM196.72 16.4995C196.72 14.1468 195.328 12.3609 193.221 12.3609C191.134 12.3609 189.764 14.1678 189.764 16.4995C189.764 18.8735 191.134 20.6591 193.221 20.6591C195.328 20.6591 196.72 18.8523 196.72 16.4995ZM199.987 15.7011H206.689C206.647 13.8316 205.445 12.3609 203.338 12.3609C201.462 12.3609 200.113 13.8527 199.986 15.7011H199.987ZM206.837 18.2853L207.954 18.6843C207.385 20.386 205.867 21.7934 203.548 21.7934C200.893 21.7934 198.659 19.8399 198.659 16.4785C198.659 13.3273 200.808 11.2266 203.317 11.2266C206.289 11.2266 207.996 13.3273 208.017 16.2895C208.017 16.4575 208.017 16.5836 207.996 16.7516H199.944V16.8357C199.965 19.1466 201.567 20.6591 203.549 20.6591C205.361 20.6591 206.415 19.6089 206.837 18.2853ZM214.068 11.4787V12.8022C213.836 12.7391 213.52 12.6971 213.182 12.6971C211.475 12.6971 210.21 13.7896 210.21 16.0793V21.5204H208.946V11.4999H210.189V13.3694C210.801 11.9827 211.96 11.3738 213.288 11.3738C213.625 11.3738 213.899 11.4158 214.068 11.4787ZM214.413 18.8943L215.572 18.4951C215.762 19.7138 216.69 20.7012 218.334 20.7012C219.577 20.7012 220.568 19.9658 220.568 18.9153C220.568 17.991 219.936 17.4869 218.86 17.2349L217.238 16.8567C215.762 16.5205 214.771 15.6383 214.771 14.1888C214.771 12.5712 216.331 11.2479 218.165 11.2479C220.505 11.2479 221.495 12.6342 221.769 13.8316L220.652 14.2516C220.462 13.2855 219.767 12.3401 218.165 12.3401C217.027 12.3401 216.015 13.0542 216.015 14.1047C216.015 14.966 216.563 15.4701 217.596 15.7013L219.198 16.0585C220.863 16.4362 221.811 17.3818 221.811 18.8315C221.811 20.323 220.547 21.7934 218.312 21.7934C215.846 21.7934 214.603 20.2179 214.413 18.8943Z" fill="white"/>
</g>
<defs>
<clipPath id="clip0_9_31">
<rect width="224.409" height="30" fill="white"/>
</clipPath>
</defs>
</svg>
