<svg width="26" height="26" viewBox="0 0 26 26" fill="none" xmlns="http://www.w3.org/2000/svg">
<g clip-path="url(#clip0_256_53)">
<path d="M15.793 2.5187C15.6564 2.45282 15.5041 2.42646 15.3534 2.44261C15.2026 2.45877 15.0594 2.51679 14.9398 2.61011L7.84062 8.12495H3.25C2.81902 8.12495 2.4057 8.29616 2.10095 8.60091C1.7962 8.90565 1.625 9.31898 1.625 9.74995V16.25C1.625 16.6809 1.7962 17.0943 2.10095 17.399C2.4057 17.7037 2.81902 17.875 3.25 17.875H7.84062L14.9398 23.3898C15.0816 23.5017 15.2569 23.5625 15.4375 23.5625C15.5604 23.561 15.6816 23.5333 15.793 23.4812C15.9301 23.4145 16.0457 23.3105 16.1265 23.1812C16.2073 23.0519 16.2501 22.9024 16.25 22.75V3.24995C16.2501 3.09746 16.2073 2.94801 16.1265 2.81869C16.0457 2.68938 15.9301 2.58542 15.793 2.5187Z" fill="white"/>
<path d="M19.5 9.75C19.2845 9.75 19.0778 9.8356 18.9255 9.98798C18.7731 10.1403 18.6875 10.347 18.6875 10.5625V15.4375C18.6875 15.653 18.7731 15.8597 18.9255 16.012C19.0778 16.1644 19.2845 16.25 19.5 16.25C19.7155 16.25 19.9222 16.1644 20.0745 16.012C20.2269 15.8597 20.3125 15.653 20.3125 15.4375V10.5625C20.3125 10.347 20.2269 10.1403 20.0745 9.98798C19.9222 9.8356 19.7155 9.75 19.5 9.75Z" fill="white"/>
<path d="M22.75 8.125C22.5345 8.125 22.3278 8.2106 22.1755 8.36298C22.0231 8.51535 21.9375 8.72201 21.9375 8.9375V17.0625C21.9375 17.278 22.0231 17.4847 22.1755 17.637C22.3278 17.7894 22.5345 17.875 22.75 17.875C22.9655 17.875 23.1722 17.7894 23.3245 17.637C23.4769 17.4847 23.5625 17.278 23.5625 17.0625V8.9375C23.5625 8.72201 23.4769 8.51535 23.3245 8.36298C23.1722 8.2106 22.9655 8.125 22.75 8.125Z" fill="white"/>
</g>
<defs>
<clipPath id="clip0_256_53">
<rect width="26" height="26" fill="white"/>
</clipPath>
</defs>
</svg>
