<svg width="30" height="30" viewBox="0 0 30 30" fill="none" xmlns="http://www.w3.org/2000/svg">
<g clip-path="url(#clip0_41_56)">
<path d="M19.6875 26.25C19.6875 26.4986 19.5887 26.7371 19.4129 26.9129C19.2371 27.0887 18.9986 27.1875 18.75 27.1875H11.25C11.0014 27.1875 10.7629 27.0887 10.5871 26.9129C10.4113 26.7371 10.3125 26.4986 10.3125 26.25C10.3125 26.0014 10.4113 25.7629 10.5871 25.5871C10.7629 25.4113 11.0014 25.3125 11.25 25.3125H18.75C18.9986 25.3125 19.2371 25.4113 19.4129 25.5871C19.5887 25.7629 19.6875 26.0014 19.6875 26.25ZM27.1875 7.5V20.625C27.1844 21.37 26.8871 22.0836 26.3603 22.6103C25.8336 23.1371 25.12 23.4344 24.375 23.4375H5.625C4.88003 23.4344 4.16645 23.1371 3.63967 22.6103C3.11289 22.0836 2.81558 21.37 2.8125 20.625V7.5C2.81558 6.75503 3.11289 6.04145 3.63967 5.51467C4.16645 4.98789 4.88003 4.69058 5.625 4.6875H24.375C25.12 4.69058 25.8336 4.98789 26.3603 5.51467C26.8871 6.04145 27.1844 6.75503 27.1875 7.5ZM19.2188 14.0625C19.2189 13.9056 19.1792 13.7512 19.1034 13.6139C19.0275 13.4766 18.918 13.3608 18.7852 13.2773L13.6289 9.99609C13.4886 9.90504 13.3263 9.85369 13.1591 9.8475C12.992 9.84131 12.8263 9.88051 12.6797 9.96094C12.5316 10.0409 12.4077 10.1593 12.3211 10.3036C12.2345 10.4479 12.1883 10.6129 12.1875 10.7812V17.3438C12.1883 17.5121 12.2345 17.6771 12.3211 17.8214C12.4077 17.9657 12.5316 18.0841 12.6797 18.1641C12.8255 18.247 12.9916 18.2877 13.1593 18.2815C13.327 18.2753 13.4896 18.2224 13.6289 18.1289L18.7852 14.8477C18.918 14.7642 19.0275 14.6484 19.1034 14.5111C19.1792 14.3738 19.2189 14.2194 19.2188 14.0625Z" fill="white"/>
</g>
<defs>
<clipPath id="clip0_41_56">
<rect width="30" height="30" fill="white"/>
</clipPath>
</defs>
</svg>
